<svg width="1920" height="1004" viewBox="0 0 1920 1004" fill="none" xmlns="http://www.w3.org/2000/svg">
<g clip-path="url(#clip0_461_2)">
<rect width="1920" height="1004" fill="#FFFAF3"/>
<mask id="mask0_461_2" style="mask-type:alpha" maskUnits="userSpaceOnUse" x="1615" y="471" width="305" height="533">
<rect x="1920" y="1004" width="304.223" height="532.312" transform="rotate(-180 1920 1004)" fill="#FFF3E2"/>
</mask>
<g mask="url(#mask0_461_2)">
<path d="M1835.48 739.444L1858.82 725.883L1835.48 711.848L1835.48 673.214L1737.24 673.214L1737.24 744.963L1772.09 744.963L1798.74 760.732L1825.86 744.963L1835.48 744.963L1835.48 739.444Z" fill="#A73C53"/>
<path d="M1918.9 830.904L1918.11 831.377L1858.35 796.843L1798.58 831.377L1798.27 830.904L1798.27 761.363L1738.82 726.986L1739.61 726.513L1798.74 760.732L1858.82 725.882L1859.14 726.355L1858.66 726.671L1858.66 796.055L1918.9 830.904Z" fill="#D14B57"/>
<path d="M1918.59 831.378L1918.59 900.919L1858.82 935.296L1858.82 866.07L1918.11 831.062L1918.59 831.378Z" fill="#D14B57"/>
<path d="M1917.96 831.062L1858.82 866.069L1798.58 831.377L1798.11 831.693L1798.11 831.377L1798.43 831.062L1858.19 796.685L1917.96 831.062Z" fill="#F18067"/>
<path d="M1858.82 934.823L1858.82 935.138L1798.74 969.988L1798.11 969.672L1798.11 900.446L1858.35 935.138L1858.82 934.823Z" fill="#7D3B4F"/>
<path d="M1858.82 866.07L1858.82 935.296L1858.35 935.611L1798.11 900.919L1798.11 831.693L1798.74 831.378L1858.82 866.07Z" fill="#A73C53"/>
<path d="M1858.82 655.71L1858.82 725.883L1799.37 690.087L1797.95 690.875L1797.95 622.753L1796.69 622.122L1797.48 621.649L1798.27 622.122L1799.37 621.492L1858.82 655.71Z" fill="#F18067"/>
<path d="M1858.51 519.15L1858.51 588.692L1799.37 622.753L1798.74 622.28L1797.48 623.068L1738.03 588.692L1738.03 519.15L1798.27 484.458L1858.51 519.15Z" fill="#F18067"/>
<path d="M1798.27 969.988L1798.27 1039.53L1738.19 1074.22L1677.95 1039.53L1677.95 969.988L1738.19 935.296L1798.27 969.988Z" fill="#D14B57"/>
<path d="M1918.9 969.83L1918.9 1039.37L1858.82 1074.22L1798.27 1039.53L1798.27 969.988L1858.82 935.138L1918.9 969.83Z" fill="#F18067"/>
<path d="M1800 759.628L1798.27 831.22L1738.19 865.912L1677.95 831.22L1677.95 761.678L1738.34 726.513L1739.45 725.882L1740.24 726.355L1800 759.628Z" fill="#7D3B4F"/>
<path d="M1798.27 900.762L1798.27 969.83L1738.19 935.296L1738.35 865.754L1798.27 831.535L1798.27 900.762Z" fill="#F18067"/>
<path d="M1798.9 622.437L1799.37 690.087L1739.45 725.882L1739.13 655.552L1797.79 621.807L1798.9 622.437Z" fill="#F18067"/>
<path d="M1796.69 622.122L1738.5 655.71L1738.5 724.779L1737.71 725.252L1737.71 655.71L1679.05 621.807L1737.71 588.061L1796.69 622.122Z" fill="#A73C53"/>
<path d="M1738.35 865.754L1738.35 935.296L1678.11 969.988L1617.87 935.296L1617.87 865.754L1678.11 831.062L1738.35 865.754Z" fill="#F18067"/>
<path d="M1739.13 655.552L1739.45 725.882L1737.56 726.829L1678.11 692.61L1678.11 622.122L1679.68 621.176L1739.13 655.552Z" fill="#F18067"/>
<path d="M1737.56 726.829L1678.11 761.205L1617.24 726.04L1617.24 655.552L1678.11 620.23L1679.68 621.176L1678.11 622.122L1678.11 692.61L1737.56 726.829Z" fill="#A73C53"/>
<path d="M1979.14 726.198L1979.14 795.582L1918.11 831.377L1857.87 796.528L1858.82 726.198L1859.14 725.882L1918.9 691.348L1979.14 726.198Z" fill="#F18067"/>
<path d="M1918.59 962.576L1868.6 935.769L1919.06 908.331L1918.59 962.576Z" fill="#F18067"/>
<path d="M1859.14 589.165L1859.14 656.184L1798.43 622.122L1859.14 589.165Z" fill="#A73C53"/>
</g>
<g clip-path="url(#clip1_461_2)">
<g opacity="0.81">
<path d="M-64.3926 632.441L191.675 780.471V1076.53L-64.3926 1224.56L-320.461 1076.53V780.471L-64.3926 632.441ZM-64.3926 569L-375.393 748.75V1108.25L-64.3926 1288L246.607 1108.25V748.75L-64.3926 569Z" fill="#FBEAD0" fill-opacity="0.4"/>
</g>
</g>
<g clip-path="url(#clip2_461_2)">
<g opacity="0.81">
<path d="M58.6074 561.941L314.675 709.971V1006.03L58.6074 1154.06L-197.461 1006.03V709.971L58.6074 561.941ZM58.6074 498.5L-252.393 678.25V1037.75L58.6074 1217.5L369.607 1037.75V678.25L58.6074 498.5Z" fill="#FBEAD0" fill-opacity="0.4"/>
</g>
</g>
</g>
<defs>
<clipPath id="clip0_461_2">
<rect width="1920" height="1004" fill="white"/>
</clipPath>
<clipPath id="clip1_461_2">
<rect width="335" height="505" fill="white" transform="translate(0 499)"/>
</clipPath>
<clipPath id="clip2_461_2">
<rect width="458" height="576" fill="white" transform="translate(0 428)"/>
</clipPath>
</defs>
</svg>
