<svg width="390" height="342" viewBox="0 0 390 342" fill="none" xmlns="http://www.w3.org/2000/svg">
<rect y="0.333008" width="390" height="340.953" fill="#FFD79E"/>
<g clip-path="url(#clip0_494_4395)">
<g opacity="0.81">
<path d="M-8.40897 -18.0354L91.3033 39.6069V154.892L-8.40897 212.534L-108.121 154.892V39.6069L-8.40897 -18.0354ZM-8.40897 -42.7393L-129.512 27.255V167.244L-8.40897 237.238L112.694 167.244V27.255L-8.40897 -42.7393Z" fill="#FBEAD0" fill-opacity="0.4"/>
</g>
</g>
<g clip-path="url(#clip1_494_4395)">
<g opacity="0.81">
<path d="M409.077 17.6852L565.223 107.951V288.482L409.077 378.747L252.932 288.482V107.951L409.077 17.6852ZM409.077 -21L219.436 88.6081V307.824L409.077 417.432L598.719 307.824V88.6081L409.077 -21Z" fill="#FBEAD0" fill-opacity="0.4"/>
</g>
</g>
<g clip-path="url(#clip2_494_4395)">
<g opacity="0.81">
<path d="M484.691 60.0651L640.836 150.331V330.861L484.691 421.127L328.545 330.861V150.331L484.691 60.0651ZM484.691 21.3799L295.049 130.988V350.204L484.691 459.812L674.332 350.204V130.988L484.691 21.3799Z" fill="#FBEAD0" fill-opacity="0.4"/>
</g>
</g>
<mask id="mask0_494_4395" style="mask-type:alpha" maskUnits="userSpaceOnUse" x="304" y="0" width="86" height="148">
<rect x="304.789" y="0.333008" width="85.2114" height="147.143" fill="#FFF3E2"/>
</mask>
<g mask="url(#mask0_494_4395)">
<path d="M344.028 78.1337L337.984 81.6458L344.028 85.2804V95.2857H369.47V76.7044H360.445L353.544 72.6206L346.52 76.7044H344.028V78.1337Z" fill="#A73C53"/>
<path d="M322.424 54.4477L322.628 54.3252L338.106 63.2687L353.583 54.3252L353.665 54.4477V72.4573L369.061 81.3599L368.857 81.4825L353.542 72.6206L337.983 81.6458L337.901 81.5233L338.024 81.4416V63.4729L322.424 54.4477Z" fill="#D14B57"/>
<path d="M322.506 54.3253V36.3158L337.983 27.4131V45.341L322.628 54.407L322.506 54.3253Z" fill="#D14B57"/>
<path d="M322.67 54.4069L337.984 45.3408L353.584 54.3252L353.707 54.2435V54.3252L353.625 54.4069L338.148 63.3095L322.67 54.4069Z" fill="#F18067"/>
<path d="M337.984 27.5356V27.4539L353.544 18.4287L353.707 18.5104V36.4383L338.107 27.4539L337.984 27.5356Z" fill="#7D3B4F"/>
<path d="M337.984 45.3406V27.4127L338.107 27.3311L353.707 36.3154V54.2433L353.544 54.325L337.984 45.3406Z" fill="#A73C53"/>
<path d="M337.984 99.8184V81.6455L353.38 90.9157L353.748 90.7115V108.354L354.075 108.517L353.87 108.639L353.666 108.517L353.38 108.68L337.984 99.8184Z" fill="#F18067"/>
<path d="M338.066 135.184V117.175L353.381 108.354L353.544 108.476L353.871 108.272L369.267 117.175V135.184L353.667 144.169L338.066 135.184Z" fill="#F18067"/>
<path d="M353.666 18.4285V0.418927L369.225 -8.56543L384.825 0.418927V18.4285L369.225 27.4128L353.666 18.4285Z" fill="#D14B57"/>
<path d="M322.424 18.4693V0.459766L337.983 -8.56543L353.665 0.418928V18.4285L337.983 27.4537L322.424 18.4693Z" fill="#F18067"/>
<path d="M353.217 72.9066L353.666 54.3662L369.225 45.3818L384.825 54.3662V72.3757L369.184 81.4826L368.899 81.646L368.694 81.5235L353.217 72.9066Z" fill="#7D3B4F"/>
<path d="M353.666 36.3563V18.4692L369.225 27.4128L369.184 45.4223L353.666 54.2842V36.3563Z" fill="#F18067"/>
<path d="M353.501 108.435L353.379 90.9157L368.897 81.6455L368.979 99.8593L353.787 108.599L353.501 108.435Z" fill="#F18067"/>
<path d="M354.074 108.517L369.143 99.8186V81.9316L369.348 81.8091V99.8186L384.539 108.599L369.348 117.338L354.074 108.517Z" fill="#A73C53"/>
<path d="M369.184 45.4226V27.4131L384.784 18.4287L400.384 27.4131V45.4226L384.784 54.407L369.184 45.4226Z" fill="#F18067"/>
<path d="M368.98 99.8596L368.898 81.6459L369.388 81.4009L384.784 90.2627V108.517L384.376 108.762L368.98 99.8596Z" fill="#F18067"/>
<path d="M369.389 81.4007L384.785 72.498L400.548 81.6049V99.8595L384.785 109.007L384.376 108.762L384.785 108.517V90.2626L369.389 81.4007Z" fill="#A73C53"/>
<path d="M306.824 81.5641V63.5954L322.629 54.3252L338.229 63.3504L337.984 81.5641L337.902 81.6458L322.424 90.5893L306.824 81.5641Z" fill="#F18067"/>
<path d="M322.507 20.3481L335.453 27.2906L322.385 34.3964L322.507 20.3481Z" fill="#F18067"/>
<path d="M337.902 117.052V99.6963L353.625 108.517L337.902 117.052Z" fill="#A73C53"/>
</g>
<mask id="mask1_494_4395" style="mask-type:alpha" maskUnits="userSpaceOnUse" x="0" y="165" width="99" height="177">
<rect x="0.662109" y="165.395" width="98.3004" height="175.891" fill="white"/>
</mask>
<g mask="url(#mask1_494_4395)">
<path d="M48.1015 249.085L55.2602 245.002L48.1015 240.678V228.907H18.1699V250.767H28.7877L36.9072 255.571L45.1708 250.767H48.1015V249.085Z" fill="#A73C53"/>
<path d="M73.5159 276.951L73.2756 277.095L55.0668 266.573L36.858 277.095L36.81 276.951V255.763L18.6973 245.338L18.9375 245.194L36.9061 255.571L55.259 245.001L55.307 245.098L55.211 245.194V266.381L73.5159 276.951Z" fill="#D14B57"/>
<path d="M73.4205 277.095V298.282L55.2598 308.756V287.713L73.2764 277.047L73.4205 277.095Z" fill="#D14B57"/>
<path d="M73.2766 277.047L55.2119 287.713L36.859 277.095L36.7148 277.191V277.095L36.859 277.047L55.0678 266.525L73.2766 277.047Z" fill="#F18067"/>
<path d="M55.2607 308.612V308.756L36.9078 319.326L36.7637 319.23V298.139L55.0686 308.708L55.2607 308.612Z" fill="#7D3B4F"/>
<path d="M55.2607 287.713V308.756L55.0686 308.853L36.7637 298.283V277.191L36.9078 277.095L55.2607 287.713Z" fill="#A73C53"/>
<path d="M55.2595 223.574V245.001L37.0988 234.047L36.6664 234.287V213.532L36.3301 213.34L36.5703 213.196L36.7625 213.34L37.1468 213.148L55.2595 223.574Z" fill="#F18067"/>
<path d="M55.1149 181.967V203.155L37.1463 213.532L36.9061 213.436L36.5697 213.628L18.457 203.155V181.967L36.7619 171.397L55.1149 181.967Z" fill="#F18067"/>
<path d="M36.8113 319.326V340.514L18.4584 351.083L0.105469 340.514V319.326L18.4584 308.756L36.8113 319.326Z" fill="#D14B57"/>
<path d="M73.5645 319.326V340.466L55.2115 351.084L36.8105 340.514V319.326L55.2115 308.708L73.5645 319.326Z" fill="#F18067"/>
<path d="M37.3398 255.235L36.8113 277.047L18.4584 287.665L0.105469 277.047V255.86L18.5545 245.146L18.8428 244.954L19.083 245.098L37.3398 255.235Z" fill="#7D3B4F"/>
<path d="M36.7619 298.235V319.326L18.457 308.756L18.5051 287.569L36.7619 277.143V298.235Z" fill="#F18067"/>
<path d="M37.0018 213.436L37.0979 234.047L18.841 244.953L18.793 223.526L36.6655 213.244L37.0018 213.436Z" fill="#F18067"/>
<path d="M36.3313 213.34L18.5549 223.574V244.665L18.3627 244.761V223.574L0.490234 213.292L18.3147 202.963L36.3313 213.34Z" fill="#A73C53"/>
<path d="M18.5055 287.569V308.756L0.152547 319.374L-18.1523 308.756V287.569L0.152547 276.999L18.5055 287.569Z" fill="#F18067"/>
<path d="M18.7935 223.526L18.8416 244.954L18.3131 245.29L0.152344 234.816V213.341L0.680833 213.052L18.7935 223.526Z" fill="#F18067"/>
<path d="M18.3133 245.29L0.200579 255.716L-18.3926 245.002V223.526L0.200579 212.812L0.681022 213.052L0.152534 213.341V234.816L18.3133 245.29Z" fill="#A73C53"/>
<path d="M91.8688 245.049V266.189L73.2756 277.095L54.9707 266.525L55.2109 245.049L55.3551 244.953L73.5639 234.432L91.8688 245.049Z" fill="#F18067"/>
<path d="M73.4195 317.068L58.1895 308.901L73.5636 300.541L73.4195 317.068Z" fill="#F18067"/>
<path d="M85.9596 283.581L75.8223 277.719V289.442L85.9596 283.581Z" fill="#D14B57"/>
<path d="M42.5762 213.244L52.7135 219.153V207.382L42.5762 213.244Z" fill="#F18067"/>
<path d="M57.709 224.967V241.302L71.834 233.278L57.709 224.967Z" fill="#A73C53"/>
<path d="M-3.54688 181.15L18.7937 202.963L-2.58599 215.502L-3.54688 181.15Z" fill="#D14B57"/>
</g>
<defs>
<clipPath id="clip0_494_4395">
<rect width="112.147" height="236.365" fill="white" transform="translate(0.546875 0.873535)"/>
</clipPath>
<clipPath id="clip1_494_4395">
<rect width="171" height="341" fill="white" transform="translate(219)"/>
</clipPath>
<clipPath id="clip2_494_4395">
<rect width="95" height="319" fill="white" transform="translate(295 22)"/>
</clipPath>
</defs>
</svg>
