<svg width="721" height="733" viewBox="0 0 721 733" fill="none" xmlns="http://www.w3.org/2000/svg">
<rect x="0.0507812" y="0.331543" width="720.945" height="731.816" fill="#FFD79E"/>
<g clip-path="url(#clip0_461_115)">
<g opacity="0.81">
<path d="M-23 -48.5588L233.068 99.4706V395.529L-23 543.559L-279.068 395.529V99.4706L-23 -48.5588ZM-23 -112L-334 67.75V427.25L-23 607L288 427.25V67.75L-23 -112Z" fill="#FBEAD0" fill-opacity="0.4"/>
</g>
</g>
<g clip-path="url(#clip1_461_115)">
<g opacity="0.81">
<path d="M742 162.441L998.068 310.471V606.529L742 754.559L485.932 606.529V310.471L742 162.441ZM742 99L431 278.75V638.25L742 818L1053 638.25V278.75L742 99Z" fill="#FBEAD0" fill-opacity="0.4"/>
</g>
</g>
<g clip-path="url(#clip2_461_115)">
<g opacity="0.81">
<path d="M866 231.941L1122.07 379.971V676.029L866 824.059L609.932 676.029V379.971L866 231.941ZM866 168.5L555 348.25V707.75L866 887.5L1177 707.75V348.25L866 168.5Z" fill="#FBEAD0" fill-opacity="0.4"/>
</g>
</g>
<mask id="mask0_461_115" style="mask-type:alpha" maskUnits="userSpaceOnUse" x="512" y="0" width="209" height="361">
<rect x="512.34" y="0.331543" width="208.657" height="360.308" fill="#FFF3E2"/>
</mask>
<g mask="url(#mask0_461_115)">
<path d="M620.652 190.841L605.852 199.441L620.652 208.341V232.841H682.952V187.341H660.852L643.952 177.341L626.752 187.341H620.652V190.841Z" fill="#A73C53"/>
<path d="M567.75 132.842L568.25 132.542L606.15 154.441L644.05 132.542L644.25 132.842V176.941L681.95 198.742L681.45 199.042L643.95 177.342L605.85 199.441L605.65 199.142L605.95 198.941V154.941L567.75 132.842Z" fill="#D14B57"/>
<path d="M567.951 132.542V88.4416L605.851 66.6416V110.542L568.251 132.742L567.951 132.542Z" fill="#D14B57"/>
<path d="M568.352 132.742L605.852 110.542L644.052 132.542L644.352 132.342V132.542L644.152 132.742L606.252 154.542L568.352 132.742Z" fill="#F18067"/>
<path d="M605.852 66.9416V66.7416L643.952 44.6416L644.352 44.8416V88.7416L606.152 66.7416L605.852 66.9416Z" fill="#7D3B4F"/>
<path d="M605.852 110.541V66.6414L606.152 66.4414L644.352 88.4414V132.341L643.952 132.541L605.852 110.541Z" fill="#A73C53"/>
<path d="M605.852 243.941V199.441L643.552 222.141L644.452 221.641V264.841L645.252 265.241L644.752 265.541L644.252 265.241L643.552 265.641L605.852 243.941Z" fill="#F18067"/>
<path d="M606.051 330.542V286.442L643.551 264.842L643.951 265.142L644.751 264.642L682.451 286.442V330.542L644.251 352.542L606.051 330.542Z" fill="#F18067"/>
<path d="M644.25 44.6415V0.541504L682.35 -21.4585L720.55 0.541504V44.6415L682.35 66.6415L644.25 44.6415Z" fill="#D14B57"/>
<path d="M567.75 44.7415V0.641504L605.85 -21.4585L644.25 0.541504V44.6415L605.85 66.7415L567.75 44.7415Z" fill="#F18067"/>
<path d="M643.15 178.042L644.25 132.642L682.35 110.642L720.55 132.642V176.742L682.25 199.042L681.55 199.442L681.05 199.142L643.15 178.042Z" fill="#7D3B4F"/>
<path d="M644.25 88.5417V44.7417L682.35 66.6417L682.25 110.742L644.25 132.442V88.5417Z" fill="#F18067"/>
<path d="M643.851 265.041L643.551 222.141L681.551 199.441L681.751 244.041L644.551 265.441L643.851 265.041Z" fill="#F18067"/>
<path d="M645.25 265.241L682.15 243.941V200.141L682.65 199.841V243.941L719.85 265.441L682.65 286.841L645.25 265.241Z" fill="#A73C53"/>
<path d="M682.25 110.742V66.6416L720.45 44.6416L758.65 66.6416V110.742L720.45 132.742L682.25 110.742Z" fill="#F18067"/>
<path d="M681.751 244.041L681.551 199.441L682.751 198.841L720.451 220.541V265.241L719.451 265.841L681.751 244.041Z" fill="#F18067"/>
<path d="M682.75 198.842L720.45 177.042L759.05 199.342V244.042L720.45 266.441L719.45 265.841L720.45 265.242V220.542L682.75 198.842Z" fill="#A73C53"/>
<path d="M529.551 199.242V155.242L568.251 132.542L606.451 154.642L605.851 199.242L605.651 199.441L567.751 221.342L529.551 199.242Z" fill="#F18067"/>
<path d="M567.95 49.3413L599.65 66.3413L567.65 83.7413L567.95 49.3413Z" fill="#F18067"/>
<path d="M605.65 286.142V243.642L644.15 265.242L605.65 286.142Z" fill="#A73C53"/>
</g>
<mask id="mask1_461_115" style="mask-type:alpha" maskUnits="userSpaceOnUse" x="0" y="375" width="200" height="358">
<rect x="0.0507812" y="375.352" width="199.414" height="356.817" fill="white"/>
</mask>
<g mask="url(#mask1_461_115)">
<path d="M96.2844 545.128L110.806 536.844L96.2844 528.072V504.193H35.5645V548.539H57.1039L73.5753 558.286L90.3391 548.539H96.2844V545.128Z" fill="#A73C53"/>
<path d="M147.843 601.657L147.356 601.95L110.417 580.605L73.478 601.95L73.3806 601.657V558.676L36.6367 537.526L37.124 537.234L73.5755 558.286L110.807 536.844L110.904 537.039L110.709 537.234V580.215L147.843 601.657Z" fill="#D14B57"/>
<path d="M147.648 601.95V644.931L110.807 666.178V623.489L147.356 601.852L147.648 601.95Z" fill="#D14B57"/>
<path d="M147.355 601.852L110.709 623.489L73.4779 601.949L73.1855 602.144V601.949L73.4779 601.852L110.417 580.507L147.355 601.852Z" fill="#F18067"/>
<path d="M110.807 665.886V666.178L73.5756 687.62L73.2832 687.425V644.639L110.417 666.081L110.807 665.886Z" fill="#7D3B4F"/>
<path d="M110.807 623.489V666.178L110.417 666.373L73.2832 644.931V602.145L73.5756 601.95L110.807 623.489Z" fill="#A73C53"/>
<path d="M110.807 493.375V536.844L73.9657 514.622L73.0885 515.11V473.005L72.4062 472.615L72.8936 472.323L73.2834 472.615L74.0631 472.226L110.807 493.375Z" fill="#F18067"/>
<path d="M110.513 408.971V451.953L74.0618 473.005L73.5745 472.81L72.8923 473.2L36.1484 451.953V408.971L73.2821 387.529L110.513 408.971Z" fill="#F18067"/>
<path d="M73.3803 687.62V730.602L36.1491 752.044L-1.08203 730.602V687.62L36.1491 666.178L73.3803 687.62Z" fill="#D14B57"/>
<path d="M147.941 687.62V730.504L110.709 752.044L73.3809 730.602V687.62L110.709 666.081L147.941 687.62Z" fill="#F18067"/>
<path d="M74.4524 557.603L73.3803 601.852L36.1491 623.391L-1.08203 601.852V558.87L36.3441 537.136L36.9288 536.746L37.4162 537.038L74.4524 557.603Z" fill="#7D3B4F"/>
<path d="M73.2821 644.833V687.62L36.1484 666.178L36.2459 623.197L73.2821 602.047V644.833Z" fill="#F18067"/>
<path d="M73.7708 472.81L73.9657 514.622L36.9295 536.747L36.832 493.278L73.0886 472.42L73.7708 472.81Z" fill="#F18067"/>
<path d="M72.4052 472.615L36.3436 493.375V536.162L35.9538 536.356V493.375L-0.302734 472.518L35.8563 451.563L72.4052 472.615Z" fill="#A73C53"/>
<path d="M36.2457 623.197V666.178L-0.985447 687.718L-38.1191 666.178V623.197L-0.985447 601.755L36.2457 623.197Z" fill="#F18067"/>
<path d="M36.8316 493.277L36.929 536.746L35.8569 537.428L-0.984375 516.181V472.615L0.0877287 472.03L36.8316 493.277Z" fill="#F18067"/>
<path d="M35.8568 537.428L-0.886993 558.578L-38.6055 536.844V493.277L-0.886993 471.543L0.0876465 472.03L-0.984459 472.615V516.181L35.8568 537.428Z" fill="#A73C53"/>
<path d="M185.073 536.941V579.825L147.354 601.95L110.221 580.508L110.708 536.941L111 536.746L147.939 515.402L185.073 536.941Z" fill="#F18067"/>
<path d="M147.648 683.039L116.752 666.47L147.94 649.512L147.648 683.039Z" fill="#F18067"/>
<path d="M173.086 615.107L152.521 603.217V626.998L173.086 615.107Z" fill="#D14B57"/>
<path d="M85.0762 472.42L105.641 484.408V460.53L85.0762 472.42Z" fill="#F18067"/>
<path d="M115.777 496.201V529.339L144.432 513.062L115.777 496.201Z" fill="#A73C53"/>
<path d="M-8.48828 407.314L36.8324 451.563L-6.539 477.001L-8.48828 407.314Z" fill="#D14B57"/>
</g>
<defs>
<clipPath id="clip0_461_115">
<rect width="288" height="607" fill="white"/>
</clipPath>
<clipPath id="clip1_461_115">
<rect width="290" height="633" fill="white" transform="translate(431 99)"/>
</clipPath>
<clipPath id="clip2_461_115">
<rect width="166" height="563" fill="white" transform="translate(555 169)"/>
</clipPath>
</defs>
</svg>
